<?xml version="1.0" standalone="no"?>
<svg xmlns="http://www.w3.org/2000/svg" viewBox="0 0 298.0608888888889 53" width="298.0608888888889" height="53"><rect fill="none" stroke="#000000" stroke-width="3" width="295.0608888888889" height="50" x="1.5" y="1.5"></rect><g fill="#000000" color="#000000" transform="translate(12, 12) scale(0.5370371)"><svg width="51.0" height="54.0" x="0.0" y="0.0" viewBox="0 0 51 54"><path fill="currentColor" fill-rule="evenodd" d="M28.58 14.169c5.536 1.088 7.414 1.494 7.385 1.577-.028.065 1.047 3.32 2.396 7.241 1.349 3.911 2.452 7.14 2.452 7.168 0 .036-.085.101-.179.147-.104.055-2.32 2.454-4.923 5.35-2.604 2.897-4.877 5.415-5.056 5.618-.245.258-.35.323-.406.24-.047-.074-3.084-.71-7.659-1.615l-7.574-1.494.02-.221c.018-.12-1.076-3.395-2.406-7.278-2.113-6.125-2.415-7.066-2.283-7.122.085-.027 2.443-2.592 5.226-5.682 5.055-5.599 5.074-5.617 5.32-5.507.141.065 3.593.775 7.687 1.578M22.175.129c-.028.074-.34 2.63-.679 5.692-.5 4.353-.66 5.571-.773 5.626-.076.047-4.707 1.098-10.281 2.343C4.867 15.036.245 16.087.17 16.124c-.075.046-.15.12-.17.175-.019.056 2.085 1.624 4.688 3.497 2.594 1.863 4.707 3.44 4.688 3.496-.16.396-6.197 19.721-6.197 19.823 0 .074.056.147.123.166.056.027 2.508-.978 5.442-2.242 2.933-1.254 5.357-2.26 5.386-2.223 1.264 1.365 14.299 15.045 14.403 15.119.094.065.207.083.264.046.056-.037.368-2.398.735-5.691.35-3.1.67-5.655.698-5.683.038-.027.66-.184 1.387-.34 3.207-.711 19.072-4.272 19.223-4.318a.241.241 0 0 0 .16-.212c0-.102-1.585-1.291-4.546-3.432-2.5-1.789-4.603-3.311-4.679-3.366-.103-.074.387-1.753 2.934-9.87 1.688-5.37 3.093-9.88 3.131-10.009.038-.166.02-.258-.075-.295-.076-.028-2.5.968-5.386 2.204-2.886 1.237-5.291 2.26-5.33 2.279-.046.01-3.065-3.118-6.705-6.946C22.514.074 22.439 0 22.317 0c-.047 0-.113.055-.142.13"></path></svg></g><line x1="49.889" y1="0" x2="49.889" y2="100%" stroke="#000000" stroke-width="3"></line><path fill="#000000" fill-rule="nonzero" d="M7.85 16.97L0.10 16.97Q0 16.97 0 16.85L0 16.85L0.02 0.36Q0.02 0.26 0.12 0.26L0.12 0.26L7.82 0.26Q7.92 0.26 7.92 0.38L7.92 0.38L7.92 3.07Q7.92 3.17 7.82 3.17L7.82 3.17L2.90 3.17L2.90 6.91L7.82 6.91Q7.92 6.91 7.92 7.01L7.92 7.01L7.94 9.72Q7.94 9.82 7.85 9.82L7.85 9.82L2.90 9.82L2.90 14.02L7.85 14.02Q7.94 14.02 7.94 14.14L7.94 14.14L7.94 16.87Q7.94 16.97 7.85 16.97L7.85 16.97ZM12.70 16.97L10.30 16.97Q10.10 16.97 10.10 16.80L10.10 16.80L10.08 0.46Q10.08 0.26 10.27 0.26L10.27 0.26L12.43 0.26L16.49 9.72L16.37 0.46Q16.37 0.26 16.58 0.26L16.58 0.26L18.96 0.26Q19.10 0.26 19.10 0.46L19.10 0.46L19.13 16.82Q19.13 16.97 19.01 16.97L19.01 16.97L16.90 16.97L12.74 8.14L12.91 16.78Q12.91 16.97 12.70 16.97L12.70 16.97ZM26.33 16.97L23.62 16.97Q23.52 16.97 23.52 16.85L23.52 16.85L23.52 3.17L20.40 3.17Q20.28 3.17 20.28 3.05L20.28 3.05L20.30 0.36Q20.30 0.26 20.40 0.26L20.40 0.26L29.52 0.26Q29.64 0.26 29.64 0.36L29.64 0.36L29.64 3.05Q29.64 3.17 29.54 3.17L29.54 3.17L26.40 3.17L26.42 16.85Q26.42 16.97 26.33 16.97L26.33 16.97ZM38.66 16.97L30.91 16.97Q30.82 16.97 30.82 16.85L30.82 16.85L30.84 0.36Q30.84 0.26 30.94 0.26L30.94 0.26L38.64 0.26Q38.74 0.26 38.74 0.38L38.74 0.38L38.74 3.07Q38.74 3.17 38.64 3.17L38.64 3.17L33.72 3.17L33.72 6.91L38.64 6.91Q38.74 6.91 38.74 7.01L38.74 7.01L38.76 9.72Q38.76 9.82 38.66 9.82L38.66 9.82L33.72 9.82L33.72 14.02L38.66 14.02Q38.76 14.02 38.76 14.14L38.76 14.14L38.76 16.87Q38.76 16.97 38.66 16.97L38.66 16.97ZM43.70 16.97L40.99 16.97Q40.90 16.97 40.90 16.85L40.90 16.85L40.94 0.36Q40.94 0.26 41.04 0.26L41.04 0.26L45.89 0.26Q47.18 0.26 48.28 0.90Q49.37 1.54 50.02 2.60Q50.66 3.67 50.66 5.02L50.66 5.02Q50.66 5.90 50.40 6.61Q50.14 7.32 49.78 7.81Q49.42 8.30 49.13 8.54L49.13 8.54Q50.42 9.98 50.42 11.93L50.42 11.93L50.45 16.85Q50.45 16.97 50.33 16.97L50.33 16.97L47.62 16.97Q47.52 16.97 47.52 16.90L47.52 16.90L47.52 11.93Q47.52 11.06 46.91 10.43Q46.30 9.79 45.41 9.79L45.41 9.79L43.82 9.79L43.80 16.85Q43.80 16.97 43.70 16.97L43.70 16.97ZM43.82 3.14L43.82 6.91L45.89 6.91Q46.63 6.91 47.21 6.36Q47.78 5.81 47.78 5.02L47.78 5.02Q47.78 4.25 47.22 3.70Q46.66 3.14 45.89 3.14L45.89 3.14L43.82 3.14ZM57.10 16.97L54.38 16.97Q54.29 16.97 54.29 16.85L54.29 16.85L54.29 3.17L51.17 3.17Q51.05 3.17 51.05 3.05L51.05 3.05L51.07 0.36Q51.07 0.26 51.17 0.26L51.17 0.26L60.29 0.26Q60.41 0.26 60.41 0.36L60.41 0.36L60.41 3.05Q60.41 3.17 60.31 3.17L60.31 3.17L57.17 3.17L57.19 16.85Q57.19 16.97 57.10 16.97L57.10 16.97ZM59.90 16.85L59.90 16.85L62.88 0.36Q62.90 0.26 63.00 0.26L63.00 0.26L66.48 0.26Q66.58 0.26 66.60 0.36L66.60 0.36L69.46 16.85Q69.48 16.97 69.36 16.97L69.36 16.97L66.70 16.97Q66.60 16.97 66.58 16.85L66.58 16.85L66.31 15.10L63.05 15.10L62.78 16.85Q62.76 16.97 62.66 16.97L62.66 16.97L60.00 16.97Q59.90 16.97 59.90 16.85ZM64.61 5.78L63.53 12.53L65.83 12.53L64.85 5.78L64.70 4.90L64.61 5.78ZM73.80 16.97L71.09 16.97Q70.97 16.97 70.97 16.85L70.97 16.85L70.99 0.36Q70.99 0.26 71.09 0.26L71.09 0.26L73.78 0.26Q73.87 0.26 73.87 0.36L73.87 0.36L73.90 16.85Q73.90 16.97 73.80 16.97L73.80 16.97ZM78.62 16.97L76.22 16.97Q76.03 16.97 76.03 16.80L76.03 16.80L76.01 0.46Q76.01 0.26 76.20 0.26L76.20 0.26L78.36 0.26L82.42 9.72L82.30 0.46Q82.30 0.26 82.51 0.26L82.51 0.26L84.89 0.26Q85.03 0.26 85.03 0.46L85.03 0.46L85.06 16.82Q85.06 16.97 84.94 16.97L84.94 16.97L82.82 16.97L78.67 8.14L78.84 16.78Q78.84 16.97 78.62 16.97L78.62 16.97ZM89.95 16.97L87.24 16.97Q87.14 16.97 87.14 16.85L87.14 16.85L87.19 0.36Q87.19 0.26 87.29 0.26L87.29 0.26L90.22 0.26Q90.31 0.26 90.38 0.36L90.38 0.36L92.57 3.53L94.75 0.36Q94.82 0.26 94.92 0.26L94.92 0.26L97.87 0.26Q97.97 0.26 97.97 0.36L97.97 0.36L98.02 16.85Q98.02 16.97 97.92 16.97L97.92 16.97L95.21 16.97Q95.11 16.97 95.11 16.85L95.11 16.85L95.09 4.61L92.57 8.26L90.07 4.61L90.05 16.85Q90.05 16.97 89.95 16.97L89.95 16.97ZM107.88 16.97L100.13 16.97Q100.03 16.97 100.03 16.85L100.03 16.85L100.06 0.36Q100.06 0.26 100.15 0.26L100.15 0.26L107.86 0.26Q107.95 0.26 107.95 0.38L107.95 0.38L107.95 3.07Q107.95 3.17 107.86 3.17L107.86 3.17L102.94 3.17L102.94 6.91L107.86 6.91Q107.95 6.91 107.95 7.01L107.95 7.01L107.98 9.72Q107.98 9.82 107.88 9.82L107.88 9.82L102.94 9.82L102.94 14.02L107.88 14.02Q107.98 14.02 107.98 14.14L107.98 14.14L107.98 16.87Q107.98 16.97 107.88 16.97L107.88 16.97ZM112.73 16.97L110.33 16.97Q110.14 16.97 110.14 16.80L110.14 16.80L110.11 0.46Q110.11 0.26 110.30 0.26L110.30 0.26L112.46 0.26L116.52 9.72L116.40 0.46Q116.40 0.26 116.62 0.26L116.62 0.26L118.99 0.26Q119.14 0.26 119.14 0.46L119.14 0.46L119.16 16.82Q119.16 16.97 119.04 16.97L119.04 16.97L116.93 16.97L112.78 8.14L112.94 16.78Q112.94 16.97 112.73 16.97L112.73 16.97ZM126.36 16.97L123.65 16.97Q123.55 16.97 123.55 16.85L123.55 16.85L123.55 3.17L120.43 3.17Q120.31 3.17 120.31 3.05L120.31 3.05L120.34 0.36Q120.34 0.26 120.43 0.26L120.43 0.26L129.55 0.26Q129.67 0.26 129.67 0.36L129.67 0.36L129.67 3.05Q129.67 3.17 129.58 3.17L129.58 3.17L126.43 3.17L126.46 16.85Q126.46 16.97 126.36 16.97L126.36 16.97ZM137.21 16.97L134.50 16.97Q134.40 16.97 134.40 16.85L134.40 16.85L134.42 0.36Q134.42 0.26 134.54 0.26L134.54 0.26L137.21 0.26Q137.33 0.26 137.33 0.36L137.33 0.36L137.30 6.89L140.90 6.89L140.90 0.36Q140.90 0.26 141 0.26L141 0.26L143.66 0.26Q143.78 0.26 143.78 0.36L143.78 0.36L143.83 16.85Q143.83 16.97 143.71 16.97L143.71 16.97L141.02 16.97Q140.90 16.97 140.90 16.85L140.90 16.85L140.90 9.79L137.30 9.79L137.30 16.85Q137.30 16.97 137.21 16.97L137.21 16.97ZM153.65 16.97L145.90 16.97Q145.80 16.97 145.80 16.85L145.80 16.85L145.82 0.36Q145.82 0.26 145.92 0.26L145.92 0.26L153.62 0.26Q153.72 0.26 153.72 0.38L153.72 0.38L153.72 3.07Q153.72 3.17 153.62 3.17L153.62 3.17L148.70 3.17L148.70 6.91L153.62 6.91Q153.72 6.91 153.72 7.01L153.72 7.01L153.74 9.72Q153.74 9.82 153.65 9.82L153.65 9.82L148.70 9.82L148.70 14.02L153.65 14.02Q153.74 14.02 153.74 14.14L153.74 14.14L153.74 16.87Q153.74 16.97 153.65 16.97L153.65 16.97ZM163.73 16.97L155.98 16.97Q155.88 16.97 155.88 16.85L155.88 16.85L155.90 0.38Q155.90 0.26 156.02 0.26L156.02 0.26L158.69 0.26Q158.81 0.26 158.81 0.38L158.81 0.38L158.78 14.02L163.73 14.02Q163.85 14.02 163.85 14.14L163.85 14.14L163.85 16.85Q163.85 16.97 163.73 16.97L163.73 16.97ZM168.22 16.97L165.53 16.97Q165.41 16.97 165.41 16.85L165.41 16.85L165.46 0.36Q165.46 0.26 165.55 0.26L165.55 0.26L170.16 0.26Q172.37 0.26 173.65 1.61Q174.94 2.95 174.94 5.26L174.94 5.26Q174.94 6.96 174.26 8.21Q173.59 9.46 172.51 10.13Q171.43 10.80 170.16 10.80L170.16 10.80L168.34 10.80L168.34 16.85Q168.34 16.97 168.22 16.97L168.22 16.97ZM168.34 3.14L168.34 7.90L170.16 7.90Q170.93 7.90 171.49 7.16Q172.06 6.43 172.06 5.26L172.06 5.26Q172.06 4.32 171.55 3.72Q171.05 3.12 170.16 3.12L170.16 3.12L168.34 3.14ZM180.65 17.21L180.65 17.21Q179.35 17.21 178.28 16.55Q177.22 15.89 176.58 14.80Q175.94 13.70 175.94 12.38L175.94 12.38L175.94 11.28Q175.94 11.16 176.06 11.16L176.06 11.16L178.75 11.16Q178.85 11.16 178.85 11.28L178.85 11.28L178.85 12.38Q178.85 13.18 179.38 13.74Q179.90 14.30 180.65 14.30L180.65 14.30Q181.39 14.30 181.92 13.73Q182.45 13.15 182.45 12.38L182.45 12.38Q182.45 11.50 181.30 10.85L181.30 10.85Q180.91 10.63 180.10 10.18Q179.28 9.72 178.56 9.31L178.56 9.31Q177.24 8.54 176.60 7.38Q175.97 6.22 175.97 4.75L175.97 4.75Q175.97 3.41 176.62 2.34Q177.26 1.27 178.33 0.65Q179.40 0.02 180.65 0.02L180.65 0.02Q181.92 0.02 182.99 0.66Q184.06 1.30 184.69 2.36Q185.33 3.43 185.33 4.75L185.33 4.75L185.33 6.72Q185.33 6.82 185.23 6.82L185.23 6.82L182.54 6.82Q182.45 6.82 182.45 6.72L182.45 6.72L182.42 4.75Q182.42 3.91 181.90 3.38Q181.37 2.86 180.65 2.86L180.65 2.86Q179.90 2.86 179.38 3.42Q178.85 3.98 178.85 4.75L178.85 4.75Q178.85 5.54 179.18 6.07Q179.52 6.60 180.41 7.08L180.41 7.08Q180.53 7.15 180.88 7.33Q181.22 7.51 181.63 7.74Q182.04 7.97 182.36 8.14Q182.69 8.30 182.76 8.35L182.76 8.35Q183.96 9.02 184.66 10.00Q185.35 10.97 185.35 12.38L185.35 12.38Q185.35 13.75 184.72 14.84Q184.08 15.94 183.01 16.57Q181.94 17.21 180.65 17.21ZM195.58 16.97L192.82 16.97Q192.74 16.97 192.74 16.87L192.74 16.87L192.77 10.06L189.55 0.36Q189.53 0.26 189.62 0.26L189.62 0.26L192.29 0.26Q192.41 0.26 192.43 0.36L192.43 0.36L194.21 6.82L196.01 0.36Q196.03 0.26 196.13 0.26L196.13 0.26L198.82 0.26Q198.91 0.26 198.89 0.36L198.89 0.36L195.65 9.96L195.67 16.87Q195.67 16.97 195.58 16.97L195.58 16.97ZM203.86 17.21L203.86 17.21Q202.56 17.21 201.49 16.55Q200.42 15.89 199.78 14.80Q199.13 13.70 199.13 12.38L199.13 12.38L199.15 4.78Q199.15 3.46 199.79 2.38Q200.42 1.30 201.50 0.65Q202.58 0 203.86 0L203.86 0Q205.15 0 206.21 0.65Q207.26 1.30 207.90 2.38Q208.54 3.46 208.54 4.78L208.54 4.78L208.56 12.38Q208.56 13.70 207.92 14.80Q207.29 15.89 206.22 16.55Q205.15 17.21 203.86 17.21ZM203.86 14.30L203.86 14.30Q204.58 14.30 205.12 13.72Q205.66 13.13 205.66 12.38L205.66 12.38L205.63 4.78Q205.63 3.98 205.13 3.43Q204.62 2.88 203.86 2.88L203.86 2.88Q203.11 2.88 202.58 3.42Q202.06 3.96 202.06 4.78L202.06 4.78L202.06 12.38Q202.06 13.18 202.58 13.74Q203.11 14.30 203.86 14.30ZM214.94 17.21L214.94 17.21Q213.67 17.21 212.59 16.55Q211.51 15.89 210.88 14.78Q210.24 13.68 210.24 12.36L210.24 12.36L210.29 0.36Q210.29 0.26 210.38 0.26L210.38 0.26L213.07 0.26Q213.17 0.26 213.17 0.36L213.17 0.36L213.17 12.36Q213.17 13.18 213.68 13.74Q214.20 14.30 214.94 14.30L214.94 14.30Q215.71 14.30 216.23 13.74Q216.74 13.18 216.74 12.36L216.74 12.36L216.74 0.36Q216.74 0.26 216.84 0.26L216.84 0.26L219.53 0.26Q219.62 0.26 219.62 0.36L219.62 0.36L219.67 12.36Q219.67 13.70 219.04 14.81Q218.40 15.91 217.33 16.56Q216.26 17.21 214.94 17.21Z" transform="translate(63.389 18.016)"></path></svg>